<?xml version="1.0" encoding="iso-8859-1"?>
<!-- Generator: Adobe Illustrator 19.0.0, SVG Export Plug-In . SVG Version: 6.00 Build 0)  -->
<svg version="1.1" id="Capa_1" xmlns="http://www.w3.org/2000/svg" xmlns:xlink="http://www.w3.org/1999/xlink" x="0px" y="0px"
	 viewBox="0 0 460.432 460.432" style="enable-background:new 0 0 460.432 460.432;" xml:space="preserve">
<g>
	<g>
		<path d="M253.16,187.428C371.352,174.244,456.8,70.3,460.432,65.804L448,55.74c-0.848,1.048-84.544,102.728-195.744,115.688
			c-3.672-8.64-12.144-14.656-22.04-14.656s-18.368,6.016-22.04,14.656C96.968,158.468,13.28,56.788,12.432,55.74L0,65.804
			C3.64,70.3,89.08,174.236,207.272,187.42c2.16,7.416,7.752,13.312,15.04,15.88l0.056,25.76
			c-13.976,1.232-27.312,5.728-39.192,13.272l-5.728,3.944c-0.008,0-0.008,0.008-0.016,0.008l-7,5.92
			c-17.784,16.52-28.216,39.992-28.216,64.488c0,24.824,10.208,47.84,28.208,64.48l7,5.928c0,0,0.008,0.008,0.016,0.008l5.736,3.944
			c14.096,8.936,30.216,13.64,47.048,13.64c48.52,0,88-39.48,88-88c0-45.776-35.144-83.456-79.856-87.584l-0.056-25.864
			C245.472,200.636,251,194.764,253.16,187.428z M222.208,180.508c0.2-4.264,3.792-7.736,8.008-7.736s8,3.472,8,7.736v0.264
			c0,4.368-3.584,7.96-8,8C225.808,188.772,222.216,185.18,222.208,180.508z M187.52,364.06l-5.824,5.824
			c-15-13.648-23.48-32.68-23.48-53.192c0-20.576,8.48-39.616,23.48-53.208l11.336,11.336c-0.728,0.64-1.376,1.344-2.064,2.024
			c-0.528,0.52-1.08,1.016-1.584,1.552c-1.312,1.384-2.544,2.84-3.696,4.344c-0.176,0.224-0.376,0.432-0.544,0.656
			c-1.304,1.752-2.48,3.584-3.56,5.472c-0.32,0.552-0.584,1.136-0.88,1.696c-0.72,1.368-1.408,2.752-2.008,4.184
			c-0.304,0.728-0.576,1.464-0.856,2.2c-0.504,1.344-0.952,2.696-1.352,4.08c-0.224,0.776-0.44,1.544-0.632,2.328
			c-0.36,1.472-0.632,2.976-0.872,4.488c-0.112,0.704-0.248,1.392-0.336,2.096c-0.264,2.232-0.432,4.472-0.432,6.752
			c0,2.28,0.168,4.52,0.432,6.744c0.08,0.712,0.224,1.4,0.336,2.104c0.24,1.504,0.512,3,0.864,4.464
			c0.192,0.792,0.416,1.576,0.64,2.352c0.392,1.368,0.84,2.712,1.336,4.04c0.28,0.76,0.56,1.512,0.88,2.256
			c0.592,1.392,1.256,2.736,1.952,4.064c0.32,0.608,0.6,1.224,0.936,1.816c1.072,1.872,2.232,3.688,3.52,5.424
			c0.216,0.288,0.472,0.552,0.688,0.832c1.112,1.44,2.288,2.84,3.544,4.168c0.528,0.552,1.088,1.072,1.64,1.608
			c0.68,0.664,1.32,1.36,2.04,1.992L187.52,364.06z M209.432,282.556l0.032-0.016c6.312-3.88,13.288-5.84,20.752-5.84
			c22.056,0,40,17.944,40,40c0,22.056-17.944,40-40,40c-7.464-0.008-14.456-1.976-20.816-5.888
			c-12.016-7.288-19.184-20.048-19.184-34.12c0-1.76,0.112-3.496,0.328-5.208C192.08,299.516,198.888,288.956,209.432,282.556z
			 M302.216,316.692c0,39.696-32.304,72-72,72c-12.544,0-24.624-3.192-35.392-9.296l5.712-5.72l6.176-6.176
			c0.224,0.104,0.456,0.176,0.688,0.272c0.592,0.264,1.2,0.472,1.792,0.72c1.576,0.64,3.168,1.224,4.792,1.72
			c0.752,0.232,1.512,0.44,2.272,0.632c1.592,0.408,3.2,0.744,4.824,1.008c0.712,0.12,1.408,0.256,2.128,0.352
			c2.32,0.296,4.648,0.48,7.008,0.48c30.88,0,56-25.12,56-56s-25.12-56-56-56c-2.352,0-4.688,0.192-7,0.48
			c-0.728,0.088-1.432,0.232-2.152,0.352c-1.608,0.264-3.2,0.592-4.776,1c-0.784,0.2-1.56,0.416-2.328,0.648
			c-1.576,0.48-3.12,1.04-4.64,1.664c-0.648,0.264-1.304,0.488-1.944,0.776c-0.216,0.096-0.44,0.16-0.656,0.264l-11.896-11.888
			c10.776-6.104,22.848-9.296,35.392-9.296C269.912,244.692,302.216,276.996,302.216,316.692z"/>
	</g>
</g>
<g>
	<g>
		<rect x="342.209" y="329.354" transform="matrix(0.7071 -0.7071 0.7071 0.7071 -138.3132 347.4137)" width="16" height="22.624"/>
	</g>
</g>
<g>
	<g>
		<rect x="338.859" y="268.667" transform="matrix(0.7071 -0.7071 0.7071 0.7071 -93.0708 328.6418)" width="22.624" height="16"/>
	</g>
</g>
<g>
	<g>
		<rect x="358.216" y="300.772" width="24" height="16"/>
	</g>
</g>
<g>
	<g>
		<rect x="102.211" y="265.379" transform="matrix(0.7071 -0.7071 0.7071 0.7071 -163.3704 158.9716)" width="16" height="22.624"/>
	</g>
</g>
<g>
	<g>
		<rect x="98.897" y="332.666" transform="matrix(0.7071 -0.7071 0.7071 0.7071 -208.6075 177.7081)" width="22.624" height="16"/>
	</g>
</g>
<g>
	<g>
		<rect x="78.216" y="300.772" width="24" height="16"/>
	</g>
</g>
<g>
	<g>
		<path d="M230.216,284.668v16c8.824,0,16,8.104,16,16.104h16C262.216,300.772,247.864,284.668,230.216,284.668z"/>
	</g>
</g>
<g>
</g>
<g>
</g>
<g>
</g>
<g>
</g>
<g>
</g>
<g>
</g>
<g>
</g>
<g>
</g>
<g>
</g>
<g>
</g>
<g>
</g>
<g>
</g>
<g>
</g>
<g>
</g>
<g>
</g>
</svg>
