<?xml version="1.0" encoding="iso-8859-1"?>
<!-- Generator: Adobe Illustrator 19.0.0, SVG Export Plug-In . SVG Version: 6.00 Build 0)  -->
<svg version="1.1" id="Capa_1" xmlns="http://www.w3.org/2000/svg" xmlns:xlink="http://www.w3.org/1999/xlink" x="0px" y="0px"
	 viewBox="0 0 471.144 471.144" style="enable-background:new 0 0 471.144 471.144;" xml:space="preserve">
<g>
	<g>
		<path d="M435.648,213.044V197.82l35.496,8.872l-19.496-68.232v-30.888c0-39.696-32.296-72-72-72h-288c-39.704,0-72,32.304-72,72
			v30.888L0,207.212l35.648-10.184v16.016c-9.288,3.312-16,12.112-16,22.528c0,6.168,2.408,11.744,6.24,16
			c-3.832,4.256-6.24,9.832-6.24,16c0,10.416,6.712,19.216,16,22.528v33.472h-16v40c0,39.696,32.296,72,72,72h288
			c39.704,0,72-32.304,72-72v-40h-16V290.1c9.288-3.312,16-12.112,16-22.528c0-6.168-2.408-11.744-6.24-16
			c3.84-4.256,6.24-9.832,6.24-16C451.648,225.156,444.936,216.356,435.648,213.044z M35.648,107.572c0-30.88,25.128-56,56-56h288
			c30.872,0,56,25.12,56,56v24h-400V107.572z M23.296,183.94l10.384-36.368h403.936l10.528,36.88l-53.424-13.36l-31.072,15.536
			l-32-16l-32,16l-32-16l-32,16l-32-16l-32,16l-32-16l-32.368,16.184l-39.2-15.68L23.296,183.94z M419.648,193.82v17.752h-168h-32
			h-168v-19.096l15.568-4.464l40.8,16.32l31.632-15.816l32,16l32-16l32,16l32-16l32,16l32-16l32,16l32.928-16.464L419.648,193.82z
			 M43.648,227.572h176c4.416,0,8,3.592,8,8s-3.584,8-8,8h-176c-4.416,0-8-3.592-8-8C35.648,231.164,39.232,227.572,43.648,227.572z
			 M435.648,363.572c0,30.88-25.128,56-56,56h-288c-30.872,0-56-25.12-56-56v-24h400V363.572z M51.648,323.572v-32h368v32H51.648z
			 M427.648,275.572h-384c-4.416,0-8-3.592-8-8c0-4.408,3.584-8,8-8h176h32h176c4.416,0,8,3.592,8,8
			C435.648,271.98,432.064,275.572,427.648,275.572z M427.648,243.572h-176c-4.416,0-8-3.592-8-8c0-4.408,3.584-8,8-8h176
			c4.416,0,8,3.592,8,8C435.648,239.98,432.064,243.572,427.648,243.572z"/>
	</g>
</g>
<g>
	<g>
		<rect x="75.648" y="67.572" width="16" height="16"/>
	</g>
</g>
<g>
	<g>
		<rect x="115.648" y="99.572" width="16" height="16"/>
	</g>
</g>
<g>
	<g>
		<rect x="163.648" y="83.572" width="16" height="16"/>
	</g>
</g>
<g>
	<g>
		<rect x="227.648" y="83.572" width="16" height="16"/>
	</g>
</g>
<g>
	<g>
		<rect x="307.648" y="67.572" width="16" height="16"/>
	</g>
</g>
<g>
	<g>
		<rect x="355.648" y="91.572" width="16" height="16"/>
	</g>
</g>
<g>
	<g>
		<rect x="75.648" y="371.572" width="64" height="16"/>
	</g>
</g>
<g>
	<g>
		<rect x="155.648" y="371.572" width="16" height="16"/>
	</g>
</g>
<g>
	<g>
		<rect x="203.648" y="371.572" width="64" height="16"/>
	</g>
</g>
<g>
	<g>
		<rect x="347.648" y="371.572" width="32" height="16"/>
	</g>
</g>
<g>
	<g>
		<rect x="395.648" y="371.572" width="16" height="16"/>
	</g>
</g>
<g>
</g>
<g>
</g>
<g>
</g>
<g>
</g>
<g>
</g>
<g>
</g>
<g>
</g>
<g>
</g>
<g>
</g>
<g>
</g>
<g>
</g>
<g>
</g>
<g>
</g>
<g>
</g>
<g>
</g>
</svg>
