<svg id="Layer_1" enable-background="new 0 0 480.165 480.165" height="512" viewBox="0 0 480.165 480.165" width="512" xmlns="http://www.w3.org/2000/svg"><path d="m440.082 111.918h-101.593c13.232-11.733 21.593-28.843 21.593-47.876 0-53.468-61.949-83.174-103.637-50.251-3.468 2.738-4.059 7.769-1.32 11.236 2.74 3.469 7.771 4.058 11.236 1.32 31.202-24.64 77.721-2.463 77.721 37.695 0 25.369-19.785 46.19-44.734 47.876h-51.266v-47.877c0-35.29-28.71-64-64-64s-64 28.71-64 64c0 19.034 8.361 36.143 21.593 47.876h-101.593c-22.056 0-40 17.944-40 40v41.237c0 20.017 14.781 36.645 34 39.549v207.461c0 22.056 17.944 40 40 40h332c22.056 0 40-17.944 40-40v-172.123c0-4.418-3.582-8-8-8s-8 3.582-8 8v172.124c0 13.233-10.767 24-24 24h-194v-231.01h56v202.22c0 4.418 3.582 8 8 8s8-3.582 8-8v-202.22h89c4.418 0 8-3.582 8-8s-3.582-8-8-8h-53v-89.237h120c13.233 0 24 10.766 24 24v41.237c0 13.234-10.767 24-24 24h-15.5c-4.418 0-8 3.582-8 8s3.582 8 8 8h15.5c22.056 0 40-17.944 40-40v-41.237c0-22.056-17.944-40-40-40zm-304-47.877c0-26.467 21.532-48 48-48s48 21.533 48 48v47.876h-51.266c-24.948-1.685-44.734-22.507-44.734-47.876zm60 400.124h-122c-13.233 0-24-10.767-24-24v-207.01h146zm108-247.01h-264c-13.233 0-24-10.766-24-24v-41.237c0-13.234 10.767-24 24-24h120v64.124c0 4.418 3.582 8 8 8s8-3.582 8-8v-64.124h128z"/></svg>