<svg id="Layer_1" enable-background="new 0 0 512.002 512.002" height="512" viewBox="0 0 512.002 512.002" width="512" xmlns="http://www.w3.org/2000/svg"><g><path d="m511.994 139.957c-.042-2.496-1.369-4.876-3.481-6.213l-158.6-100.428c-.777-.492-1.638-.837-2.54-1.018l-160.543-32.14c-7.955-1.596-12.335 9.352-5.484 13.69l71.847 45.494-57.841 17.166-48.998-31.026c-2.484-1.573-5.659-1.549-8.12.061l-59.406 38.886c-7.853 5.14.005 17.925 8.215 12.551l55.367-36.241 144.679 91.612-121.055 79.237-144.679-91.612 32.581-21.326c7.853-5.14-.005-17.925-8.215-12.551l-42.327 27.706c-2.082 1.361-3.393 3.79-3.393 6.275v264.004c0 2.57 1.316 4.961 3.488 6.336l158.601 100.428c1.796 1.136 4.112 1.46 6.146.854l274.923-81.589c8.998-2.67 5.139-17.174-4.268-14.38l-265.29 78.73v-248.358l323.399-95.976v248.357l-20.479 6.078c-8.997 2.67-5.141 17.17 4.268 14.38l25.846-7.67c3.183-.944 5.366-3.87 5.366-7.19v-264.004c0-.041-.006-.082-.007-.123zm-168.93-93.223 123.271 78.057-119.54-23.933-123.271-78.057zm-38.109 99.176-92.779-58.748 57.841-17.166 69.929 44.28c.777.492 1.638.837 2.54 1.018l130.882 26.203-260.347 77.263 92.029-60.238c2.134-1.397 3.412-3.782 3.393-6.332s-1.333-4.916-3.488-6.28zm-289.954 7.796 143.601 90.929v246.25l-143.601-90.928z"/><path d="m466.654 293.54c-1.898-1.416-4.354-1.852-6.623-1.176l-253.737 75.506c-3.18.946-5.361 3.87-5.361 7.188v73.185c0 2.368 1.118 4.597 3.016 6.012 1.311.978 2.887 1.488 4.484 1.488.716 0 1.436-.103 2.139-.312l253.737-75.506c3.18-.946 5.361-3.87 5.361-7.188v-73.185c0-2.368-1.118-4.597-3.016-6.012zm-11.984 73.604-238.737 71.042v-57.535l238.737-71.042z"/><path d="m291.679 405.335c4.142 0 7.5-3.358 7.5-7.5v-21.253c0-9.385-15-9.813-15 0v21.253c0 4.143 3.358 7.5 7.5 7.5z"/><path d="m391.21 374.829c4.142 0 7.5-3.358 7.5-7.5v-21.254c0-9.385-15-9.813-15 0v21.254c0 4.142 3.358 7.5 7.5 7.5z"/><path d="m413.346 368.829c4.142 0 7.5-3.358 7.5-7.5v-21.254c0-9.385-15-9.813-15 0v21.254c0 4.142 3.358 7.5 7.5 7.5z"/><path d="m435.482 362.829c4.142 0 7.5-3.358 7.5-7.5v-21.254c0-9.385-15-9.813-15 0v21.254c0 4.142 3.358 7.5 7.5 7.5z"/><path d="m235.335 422.099c4.142 0 7.5-3.358 7.5-7.5v-21.253c0-9.385-15-9.813-15 0v21.253c0 4.142 3.358 7.5 7.5 7.5z"/><path d="m257.013 416.765c4.142 0 7.5-3.358 7.5-7.5v-21.253c0-9.385-15-9.813-15 0v21.253c0 4.142 3.358 7.5 7.5 7.5z"/><path d="m330.843 393.227c4.142 0 7.5-3.358 7.5-7.5v-21.253c0-9.385-15-9.813-15 0v21.253c0 4.142 3.358 7.5 7.5 7.5z"/><path d="m352.046 387.797c4.142 0 7.5-3.358 7.5-7.5v-21.253c0-9.385-15-9.813-15 0v21.253c0 4.142 3.358 7.5 7.5 7.5z"/></g></svg>